<?xml version="1.0" encoding="UTF-8" standalone="no"?>
<svg
   version="1.1"
   width="232.92142"
   height="180.59776"
   id="svg14"
   sodipodi:docname="HomeGlowLogo.svg"
   inkscape:export-filename="HomeGlowLogo.svg"
   inkscape:export-xdpi="96"
   inkscape:export-ydpi="96"
   xmlns:inkscape="http://www.inkscape.org/namespaces/inkscape"
   xmlns:sodipodi="http://sodipodi.sourceforge.net/DTD/sodipodi-0.dtd"
   xmlns="http://www.w3.org/2000/svg"
   xmlns:svg="http://www.w3.org/2000/svg">
  <defs
     id="defs14" />
  <sodipodi:namedview
     id="namedview14"
     pagecolor="#ffffff"
     bordercolor="#000000"
     borderopacity="0.25"
     inkscape:showpageshadow="2"
     inkscape:pageopacity="0.0"
     inkscape:pagecheckerboard="0"
     inkscape:deskcolor="#d1d1d1"
     showguides="false"
     inkscape:export-bgcolor="#ffffff00">
    <sodipodi:guide
       position="3.6538122,13.3816"
       orientation="1,0"
       id="guide14"
       inkscape:locked="false" />
    <inkscape:page
       x="0"
       y="0"
       width="232.92142"
       height="180.59776"
       id="page2"
       margin="0"
       bleed="0" />
  </sodipodi:namedview>
  <path
     d="m 183.44522,0.51545616 c 13.67153,0.27225045 25.95989,4.19089444 36.18962,13.51002484 13.94618,14.877928 13.91974,24.082912 12.89085,111.062619 -0.59817,41.29127 0.36136,-31.847875 -0.25872,13.1694 -0.35687,10.25977 -3.94754,20.07213 -10.69464,27.88907 -10.45491,9.45998 -10.45491,9.45998 -17,11 l -2.4375,1 c -5.59079,2.18177 -10.9336,2.13797 -16.85083,2.11353 -28.57055,-0.0347 -134.687553,0.11314 -134.687553,0.11314 -15.10988,0.003 -27.94645,-3.39569 -39.02417,-14.22632 -12.09085985,-14.48037 -11.60597985,-32.03919 -11.53124985,-49.86328 -0.15712,-24.151574 0.20299,-48.308264 -0.0109,-72.459164 C 0.18388715,32.003266 5.8867672,21.973727 13.822237,13.459425 25.735027,2.1750086 38.986877,0.69095828 54.646457,0.60004993 97.578257,-0.22489374 140.51281,0.35000072 183.44521,0.51545613 Z"
     fill="#f0bd6d"
     id="path1"
     sodipodi:nodetypes="ccccccccccccccc" />
  <path
     d="m 114.57234,180.14657 -44.375003,0.125 -8.899902,0.0552 c -2.353677,0.006 -4.707355,0.0109 -7.061035,0.0151 l -3.639893,0.031 c -15.109879,0.003 -27.946454,-3.39567 -39.02417,-14.2263 C -0.51853285,151.6662 -0.03364285,134.10738 0.04108715,116.28329 c -0.1515,-24.151072 0.20298,-48.309003 -0.0109,-72.459164 0.20958,-2.726184 -0.0589,-18.680241 12.88195985,-29.934953 C 30.792022,-1.6609701 29.831039,0.12684257 114.82706,0.01232277 Z"
     fill="#447298"
     id="path2"
     sodipodi:nodetypes="ccccccccscc" />
  <path
     d="m 179.29346,0.50789358 c 15.21038,0.0513439 28.76416,2.97091992 40.34138,13.51758742 11.31564,12.071645 13.21898,27.229731 12.9375,43.121094 -0.20884,-0.301008 -118.04743,35.002702 -118.04743,35.002702 0.21133,0.372587 0.0474,87.997303 0.0474,87.997303 l 0.0469,-179.96167961 c 6.32515,0.0240788 63.15819,0.31903519 64.67421,0.32299319 z"
     fill="#d95c6d"
     id="path3"
     sodipodi:nodetypes="ccccccc" />
  <path
     d="m 114.58789,92.105975 c 0,0 -0.008,88.070415 -0.04,88.064065 -189.266873,1.73383 260.28485,-2.54725 -63.999541,0.20313 -15.090339,0.002 -27.914847,-3.41214 -38.976022,-14.2266 -10.62538485,-12.12335 -11.23515485,-27.78284 -10.99999985,-43 L 3.2456772,122.3873 C 40.276844,112.04781 114.39056,91.99649 114.58789,92.105975 Z"
     fill="#262c3f"
     id="path4"
     sodipodi:nodetypes="ccccccc" />
</svg>
